<svg viewBox="0 0 1954 532" xmlns="http://www.w3.org/2000/svg" data-sanitized-data-name="Layer 1" data-name="Layer 1" id="Layer_1">
  <defs>
    <style>
      .cls-1, .cls-2 {
        opacity: .98;
      }

      .cls-1, .cls-3, .cls-4 {
        fill: #fff;
      }

      .cls-1, .cls-3, .cls-4, .cls-5 {
        stroke-width: 0px;
      }

      .cls-2, .cls-6, .cls-7 {
        stroke: #fff;
      }

      .cls-2, .cls-6, .cls-7, .cls-8 {
        fill: none;
        stroke-miterlimit: 10;
      }

      .cls-6, .cls-4 {
        opacity: .99;
      }

      .cls-8 {
        stroke: #000;
      }

      .cls-8, .cls-5 {
        opacity: 0;
      }
    </style>
  </defs>
  <path d="M.5,93.5C120.59,63.24,241.14,32.18,360.5.5H.5v93Z" class="cls-8"></path>
  <path d="M.5,93.5v4c32.39,114.4,63.13,230.1,95,345,73.6-34.13,145.6-73.13,219-108-20.26-4.75-44.5-.87-66-1-22.98.42-46.41-.98-69,1,7.98-61.41,16.61-122.74,26.31-183.69,52.84-.72,105.8-.11,158.69-.31V.5h-4C241.14,32.18,120.59,63.24.5,93.5Z" class="cls-7"></path>
  <path d="M1557.5,218.5c-4.58,19.01-9.8,37.86-14,57,17.28-13.47,34.3-27.14,51.7-40.3,9.49-6.05,16.7-18.48,29.3-16.7h46c-25.8,26.84-55.52,52.07-83,78,31.72,71.18,65.96,141.59,97,213-28.69-27.72-58.11-57.88-82.75-89.25-23.05-34.03-44.44-70.92-69.25-102.75-6.14,28.54-13.68,56.76-21,85h-61c15.33-61.32,30.66-122.65,46-184h61ZM1449.5,218.5c-8.47,38.79-19.21,77-28.33,115.67-11.56,5.61-26.16,5.2-38.67,9.33,18.11,20.27,40.09,38.27,57,59h-57c-14.64.09-22.3-16.7-33.75-24.25-9.99-9.38-19.91-18.92-30.25-27.75-4.33,17.32-8.66,34.65-13,52h-57c14.19-61.53,30.62-122.49,45-184h156M1085.5,218.5c-13.82,49.04-28.29,97.89-42,147,17.87-15.93,32.97-34.2,50.25-50.75,15.48.8,33.98-2.85,47.67,1.83,6.75,10.4,12.22,21.85,19.08,31.92,14.18-42.3,22.77-88.47,38.08-129.92,18.97-.19,37.95-.02,56.92-.08-14.94,61.42-30.28,122.78-46,184h-50c-15.61,4.71-20.96-10.87-30.75-19.25-7.17-9.27-15.74-17.69-23.25-26.75-49.33,39.92-96.76,83.3-146,123,21.25-87.09,43.33-174.01,65-261h61M993.5,218.5c-2.52,12.44-6.08,24.63-9,37h-88c-3.45,16.8-8.55,33.17-12,50h87c-5.87,26.77-13.42,53.12-19,80-2.44,8.78-2.88,21.22-16,17h-99c1.98-13.25,6.62-25.82,9-39h47c2.15-12.12,6.09-23.79,8-36h-90c9.15-36.28,17.74-72.72,27-109h155M813.5,218.5c-2.15,12.53-5.68,24.76-9,37h-88c-3.45,16.8-8.55,33.17-12,50h87c-5.74,26.81-13.34,53.15-18.99,80.01-2.46,8.77-2.89,21.21-16.01,16.99h-99c1.98-13.25,6.62-25.82,9-39h47c2.61-12.08,5.61-24.11,9-36h-91c8.92-36.34,18.47-72.53,27-109h155M590.5,218.5c-11.14,48.54-23.69,96.76-36,145h76c-1.63,13.34-6.2,25.93-9,39-48.13,2.79-96.05,6.44-144,10,14.67-64.99,31.77-129.4,48-194h65M.5,97.5v434h332c-.6-81.57,1.74-162.4,1-244-31.47.77-62.5,3.3-94,4v-24c83.24-23,166.77-44.95,250-68-32.39,106.6-66.68,212.7-99.93,319.07-1.93,19.29-27.71,7.57-40.07,12.93h1604V184.5c-70.38,22.02-139.66,47.78-210,70-3.37,17.15-9.01,33.72-12,51h87c-8.21,32.26-15.52,64.8-24,97h-110c1.63-13.34,6.2-25.93,9-39h47c1.61-12.26,5.76-23.87,8-36h-90c8.77-36.37,17.35-72.85,27-109,89.54-10.8,178.39-24.39,268-35V.5H364.5v150c-52.89.2-105.85-.41-158.69.31-9.7,60.95-18.33,122.28-26.31,183.69,22.59-1.98,46.02-.58,69-1,21.5.13,45.74-3.75,66,1-73.4,34.87-145.4,73.87-219,108C63.63,327.6,32.89,211.9.5,97.5" class="cls-8"></path>
  <path d="M1953.5,184.5v-1c-89.61,10.61-178.46,24.2-268,35-9.65,36.15-18.23,72.63-27,109h90c-2.24,12.13-6.39,23.74-8,36h-47c-2.8,13.07-7.37,25.66-9,39h110c8.48-32.2,15.79-64.74,24-97h-87c2.99-17.28,8.63-33.85,12-51,70.34-22.22,139.62-47.98,210-70Z" class="cls-6"></path>
  <path d="M332.5,531.5h17c12.36-5.36,38.14,6.36,40.07-12.93,33.25-106.37,67.54-212.47,99.93-319.07-83.23,23.05-166.76,45-250,68v24c31.5-.7,62.53-3.23,94-4,.74,81.6-1.6,162.43-1,244Z" class="cls-6"></path>
  <path d="M590.5,218.5h-65c-16.23,64.6-33.33,129.01-48,194,47.95-3.56,95.87-7.21,144-10,2.8-13.07,7.37-25.66,9-39h-76c12.31-48.24,24.86-96.46,36-145Z" class="cls-6"></path>
  <path d="M813.5,218.5h-155c-8.53,36.47-18.08,72.66-27,109h91c-3.39,11.89-6.39,23.92-9,36h-47c-2.38,13.18-7.02,25.75-9,39h99c13.12,4.22,13.55-8.22,16.01-16.99,5.65-26.86,13.25-53.2,18.99-80.01h-87c3.45-16.83,8.55-33.2,12-50h88c3.32-12.24,6.85-24.47,9-37Z" class="cls-2"></path>
  <path d="M993.5,218.5h-155c-9.26,36.28-17.85,72.72-27,109h90c-1.91,12.21-5.85,23.88-8,36h-47c-2.38,13.18-7.02,25.75-9,39h99c13.12,4.22,13.56-8.22,16-17,5.58-26.88,13.13-53.23,19-80h-87c3.45-16.83,8.55-33.2,12-50h88c2.92-12.37,6.48-24.56,9-37Z" class="cls-2"></path>
  <path d="M1085.5,218.5h-61c-21.67,86.99-43.75,173.91-65,261,49.24-39.7,96.67-83.08,146-123,7.51,9.06,16.08,17.48,23.25,26.75,9.79,8.38,15.14,23.96,30.75,19.25h50c15.72-61.22,31.06-122.58,46-184-18.97.06-37.95-.11-56.92.08-15.31,41.45-23.9,87.62-38.08,129.92-6.86-10.07-12.33-21.52-19.08-31.92-13.69-4.68-32.19-1.03-47.67-1.83-17.28,16.55-32.38,34.82-50.25,50.75,13.71-49.11,28.18-97.96,42-147Z" class="cls-6"></path>
  <path d="M1392.5,255.5c-4.21,14.02-9.43,27.77-13,42-16.97,4.07-33.81,8.68-51,12,5.21-17.84,8.78-36.15,14-54h50ZM1449.5,218.5h-156c-14.38,61.51-30.81,122.47-45,184h57c4.34-17.35,8.67-34.68,13-52,10.34,8.83,20.26,18.37,30.25,27.75,11.45,7.55,19.11,24.34,33.75,24.25h57c-16.91-20.73-38.89-38.73-57-59,12.51-4.13,27.11-3.72,38.67-9.33,9.12-38.67,19.86-76.88,28.33-115.67" class="cls-6"></path>
  <path d="M1557.5,218.5h-61c-15.34,61.35-30.67,122.68-46,184h61c7.32-28.24,14.86-56.46,21-85,24.81,31.83,46.2,68.72,69.25,102.75,24.64,31.37,54.06,61.53,82.75,89.25-31.04-71.41-65.28-141.82-97-213,27.48-25.93,57.2-51.16,83-78h-46c-12.6-1.78-19.81,10.65-29.3,16.7-17.4,13.16-34.42,26.83-51.7,40.3,4.2-19.14,9.42-37.99,14-57Z" class="cls-6"></path>
  <path d="M1392.5,255.5h-50c-5.22,17.85-8.79,36.16-14,54,17.19-3.32,34.03-7.93,51-12,3.57-14.23,8.79-27.98,13-42Z" class="cls-8"></path>
  <path d="M.5,93.5C120.59,63.24,241.14,32.18,360.5.5H.5v93" class="cls-5"></path>
  <path d="M.5,93.5v4c32.39,114.4,63.13,230.1,95,345,73.6-34.13,145.6-73.13,219-108-20.26-4.75-44.5-.87-66-1-22.98.42-46.41-.98-69,1,7.98-61.41,16.61-122.74,26.31-183.69,52.84-.72,105.8-.11,158.69-.31V.5h-4C241.14,32.18,120.59,63.24.5,93.5" class="cls-3"></path>
  <path d="M1557.5,218.5c-4.58,19.01-9.8,37.86-14,57,17.28-13.47,34.3-27.14,51.7-40.3,9.49-6.05,16.7-18.48,29.3-16.7h46c-25.8,26.84-55.52,52.07-83,78,31.72,71.18,65.96,141.59,97,213-28.69-27.72-58.11-57.88-82.75-89.25-23.05-34.03-44.44-70.92-69.25-102.75-6.14,28.54-13.68,56.76-21,85h-61c15.33-61.32,30.66-122.65,46-184h61M1449.5,218.5c-8.47,38.79-19.21,77-28.33,115.67-11.56,5.61-26.16,5.2-38.67,9.33,18.11,20.27,40.09,38.27,57,59h-57c-14.64.09-22.3-16.7-33.75-24.25-9.99-9.38-19.91-18.92-30.25-27.75-4.33,17.32-8.66,34.65-13,52h-57c14.19-61.53,30.62-122.49,45-184h156M1085.5,218.5c-13.82,49.04-28.29,97.89-42,147,17.87-15.93,32.97-34.2,50.25-50.75,15.48.8,33.98-2.85,47.67,1.83,6.75,10.4,12.22,21.85,19.08,31.92,14.18-42.3,22.77-88.47,38.08-129.92,18.97-.19,37.95-.02,56.92-.08-14.94,61.42-30.28,122.78-46,184h-50c-15.61,4.71-20.96-10.87-30.75-19.25-7.17-9.27-15.74-17.69-23.25-26.75-49.33,39.92-96.76,83.3-146,123,21.25-87.09,43.33-174.01,65-261h61M993.5,218.5c-2.52,12.44-6.08,24.63-9,37h-88c-3.45,16.8-8.55,33.17-12,50h87c-5.87,26.77-13.42,53.12-19,80-2.44,8.78-2.88,21.22-16,17h-99c1.98-13.25,6.62-25.82,9-39h47c2.15-12.12,6.09-23.79,8-36h-90c9.15-36.28,17.74-72.72,27-109h155M813.5,218.5c-2.15,12.53-5.68,24.76-9,37h-88c-3.45,16.8-8.55,33.17-12,50h87c-5.74,26.81-13.34,53.15-18.99,80.01-2.46,8.77-2.89,21.21-16.01,16.99h-99c1.98-13.25,6.62-25.82,9-39h47c2.61-12.08,5.61-24.11,9-36h-91c8.92-36.34,18.47-72.53,27-109h155M590.5,218.5c-11.14,48.54-23.69,96.76-36,145h76c-1.63,13.34-6.2,25.93-9,39-48.13,2.79-96.05,6.44-144,10,14.67-64.99,31.77-129.4,48-194h65M.5,97.5v434h332c-.6-81.57,1.74-162.4,1-244-31.47.77-62.5,3.3-94,4v-24c83.24-23,166.77-44.95,250-68-32.39,106.6-66.68,212.7-99.93,319.07-1.93,19.29-27.71,7.57-40.07,12.93h1604V184.5c-70.38,22.02-139.66,47.78-210,70-3.37,17.15-9.01,33.72-12,51h87c-8.21,32.26-15.52,64.8-24,97h-110c1.63-13.34,6.2-25.93,9-39h47c1.61-12.26,5.76-23.87,8-36h-90c8.77-36.37,17.35-72.85,27-109,89.54-10.8,178.39-24.39,268-35V.5H364.5v150c-52.89.2-105.85-.41-158.69.31-9.7,60.95-18.33,122.28-26.31,183.69,22.59-1.98,46.02-.58,69-1,21.5.13,45.74-3.75,66,1-73.4,34.87-145.4,73.87-219,108C63.63,327.6,32.89,211.9.5,97.5" class="cls-5"></path>
  <path d="M1953.5,184.5v-1c-89.61,10.61-178.46,24.2-268,35-9.65,36.15-18.23,72.63-27,109h90c-2.24,12.13-6.39,23.74-8,36h-47c-2.8,13.07-7.37,25.66-9,39h110c8.48-32.2,15.79-64.74,24-97h-87c2.99-17.28,8.63-33.85,12-51,70.34-22.22,139.62-47.98,210-70" class="cls-4"></path>
  <path d="M332.5,531.5h17c12.36-5.36,38.14,6.36,40.07-12.93,33.25-106.37,67.54-212.47,99.93-319.07-83.23,23.05-166.76,45-250,68v24c31.5-.7,62.53-3.23,94-4,.74,81.6-1.6,162.43-1,244" class="cls-4"></path>
  <path d="M590.5,218.5h-65c-16.23,64.6-33.33,129.01-48,194,47.95-3.56,95.87-7.21,144-10,2.8-13.07,7.37-25.66,9-39h-76c12.31-48.24,24.86-96.46,36-145" class="cls-4"></path>
  <path d="M813.5,218.5h-155c-8.53,36.47-18.08,72.66-27,109h91c-3.39,11.89-6.39,23.92-9,36h-47c-2.38,13.18-7.02,25.75-9,39h99c13.12,4.22,13.55-8.22,16.01-16.99,5.65-26.86,13.25-53.2,18.99-80.01h-87c3.45-16.83,8.55-33.2,12-50h88c3.32-12.24,6.85-24.47,9-37" class="cls-1"></path>
  <path d="M993.5,218.5h-155c-9.26,36.28-17.85,72.72-27,109h90c-1.91,12.21-5.85,23.88-8,36h-47c-2.38,13.18-7.02,25.75-9,39h99c13.12,4.22,13.56-8.22,16-17,5.58-26.88,13.13-53.23,19-80h-87c3.45-16.83,8.55-33.2,12-50h88c2.92-12.37,6.48-24.56,9-37" class="cls-1"></path>
  <path d="M1085.5,218.5h-61c-21.67,86.99-43.75,173.91-65,261,49.24-39.7,96.67-83.08,146-123,7.51,9.06,16.08,17.48,23.25,26.75,9.79,8.38,15.14,23.96,30.75,19.25h50c15.72-61.22,31.06-122.58,46-184-18.97.06-37.95-.11-56.92.08-15.31,41.45-23.9,87.62-38.08,129.92-6.86-10.07-12.33-21.52-19.08-31.92-13.69-4.68-32.19-1.03-47.67-1.83-17.28,16.55-32.38,34.82-50.25,50.75,13.71-49.11,28.18-97.96,42-147" class="cls-4"></path>
  <path d="M1392.5,255.5c-4.21,14.02-9.43,27.77-13,42-16.97,4.07-33.81,8.68-51,12,5.21-17.84,8.78-36.15,14-54h50M1449.5,218.5h-156c-14.38,61.51-30.81,122.47-45,184h57c4.34-17.35,8.67-34.68,13-52,10.34,8.83,20.26,18.37,30.25,27.75,11.45,7.55,19.11,24.34,33.75,24.25h57c-16.91-20.73-38.89-38.73-57-59,12.51-4.13,27.11-3.72,38.67-9.33,9.12-38.67,19.86-76.88,28.33-115.67" class="cls-4"></path>
  <path d="M1557.5,218.5h-61c-15.34,61.35-30.67,122.68-46,184h61c7.32-28.24,14.86-56.46,21-85,24.81,31.83,46.2,68.72,69.25,102.75,24.64,31.37,54.06,61.53,82.75,89.25-31.04-71.41-65.28-141.82-97-213,27.48-25.93,57.2-51.16,83-78h-46c-12.6-1.78-19.81,10.65-29.3,16.7-17.4,13.16-34.42,26.83-51.7,40.3,4.2-19.14,9.42-37.99,14-57" class="cls-4"></path>
  <path d="M1392.5,255.5h-50c-5.22,17.85-8.79,36.16-14,54,17.19-3.32,34.03-7.93,51-12,3.57-14.23,8.79-27.98,13-42" class="cls-5"></path>
</svg>