<?xml version="1.0" encoding="UTF-8" standalone="no"?>
<!DOCTYPE svg PUBLIC "-//W3C//DTD SVG 1.1//EN" "http://www.w3.org/Graphics/SVG/1.1/DTD/svg11.dtd">
<svg width="100%" height="100%" viewBox="0 0 281 65" version="1.1" xmlns="http://www.w3.org/2000/svg" xmlns:xlink="http://www.w3.org/1999/xlink" xml:space="preserve" xmlns:serif="http://www.serif.com/" style="fill-rule:evenodd;clip-rule:evenodd;stroke-linejoin:round;stroke-miterlimit:2;">
    <g id="Artboard1" transform="matrix(0.758721,0,0,0.472441,-95.1317,-156.147)">
        <rect x="125.384" y="330.512" width="370.345" height="136.726" style="fill:none;"/>
        <clipPath id="_clip1">
            <rect x="125.384" y="330.512" width="370.345" height="136.726"/>
        </clipPath>
        <g clip-path="url(#_clip1)">
            <g id="Layer-1" serif:id="Layer 1" transform="matrix(1.31801,0,0,2.11667,-93.2867,-575.357)">
                <g transform="matrix(1,0,0,1,165.593,481.361)">
                    <path d="M0,-50.752C0,-50.752 3.091,-48.602 4.093,-44.32C5.095,-40.038 5.634,-32.347 5.634,-32.347L5.371,1.052C5.371,1.052 9.114,-2.735 12.631,-5.096C14.984,-6.677 17.539,-6.853 17.591,-8.61C17.643,-10.38 14.232,-12.142 14.232,-13.88C14.232,-17.879 14.288,-21.628 14.288,-21.628C14.288,-21.628 17.466,-26.634 16.813,-25.742C16.16,-24.849 19.49,-28.735 19.49,-28.735C19.856,-29.259 20.652,-29.188 20.909,-28.603C23.262,-23.267 32.443,-4.688 33.127,-4.688L44.141,-4.884L27.752,-34.428C27.273,-35.29 27.381,-36.356 28.03,-37.1C29.208,-38.45 31.104,-40.546 32.366,-41.555C34.314,-43.114 38.234,-45.368 38.234,-45.368C38.234,-45.368 38.556,-47.13 37.589,-49.571C36.735,-51.729 33.98,-51.804 33.98,-51.804C33.98,-51.804 26.838,-47.317 23.964,-45.068C21.089,-42.819 13.397,-35.697 13.397,-35.697L13.196,-46.846C13.196,-46.846 13.772,-50.752 0,-50.752" style="fill:white;fill-rule:nonzero;"/>
                </g>
                <g transform="matrix(1,0,0,1,208.248,475.859)">
                    <path d="M0,-41.933C8.718,-43.014 13.121,-41.23 13.121,-41.23L12.55,-6.972L28.28,-6.972L28.41,-28.684C28.41,-28.684 28.439,-35.576 23.739,-41.417C30.466,-42.156 37.21,-41.425 37.21,-41.425L37.268,-34.468L37.211,-1.422C37.211,-1.254 37.129,-1.1 36.989,-1.007C36.196,-0.483 34.696,0.495 33.565,1.032C33.491,1.067 33.419,1.081 33.337,1.078C31.87,1.027 17.356,0.521 21.239,0.521C25.045,0.521 8.612,1.005 6.332,1.072C6.166,1.077 6.01,0.995 5.91,0.862C5.1,-0.22 4.7,-0.756 3.421,-2.523C3.359,-2.609 3.321,-2.718 3.322,-2.823L3.355,-27.428C3.355,-27.428 2.709,-37.161 0,-41.933" style="fill:white;fill-rule:nonzero;"/>
                </g>
                <g transform="matrix(1,0,0,1,402.349,475.859)">
                    <path d="M0,-41.933C-8.718,-43.014 -13.121,-41.23 -13.121,-41.23L-12.55,-6.972L-28.28,-6.972L-28.41,-28.684C-28.41,-28.684 -28.439,-35.576 -23.739,-41.417C-30.466,-42.156 -37.21,-41.425 -37.21,-41.425L-37.268,-34.468L-37.211,-1.422C-37.211,-1.254 -37.129,-1.1 -36.989,-1.007C-36.196,-0.483 -34.696,0.495 -33.565,1.032C-33.491,1.067 -33.419,1.081 -33.337,1.078C-31.87,1.027 -17.356,0.521 -21.239,0.521C-25.045,0.521 -8.612,1.005 -6.332,1.072C-6.166,1.077 -6.01,0.995 -5.91,0.862C-5.1,-0.22 -4.7,-0.756 -3.421,-2.523C-3.359,-2.609 -3.321,-2.718 -3.322,-2.823L-3.355,-27.428C-3.355,-27.428 -2.709,-37.161 0,-41.933" style="fill:white;fill-rule:nonzero;"/>
                </g>
                <g transform="matrix(1,0,0,1,261.078,464.965)">
                    <path d="M0,-3.847C1.117,-3.847 9.269,-7.928 12.211,-9.734C12.369,-12.589 10.759,-17.441 9.298,-19.493C7.838,-21.544 -1.166,-21.331 -1.166,-21.331L-1.14,-5.334C-1.14,-5.334 -1.117,-3.847 0,-3.847M-11.706,-29.346L-11.706,-30.395C-5.297,-31.626 12.056,-29.547 13.561,-28.329C16.946,-25.591 19.739,-12.654 20.99,-6.707C21.258,-5.434 21.737,-3.111 20.943,-2.455C20.329,-1.948 17.922,-0.714 15.761,-0.084C13.54,0.564 11.591,0.381 11.591,0.381C11.591,0.381 25.584,9.189 36.206,13.929C46.827,18.669 52.904,20.226 77.769,27.517C77.769,27.517 74.782,27.779 62.054,27.779C53.574,27.779 33.131,21.037 20.198,15.072C6.148,8.591 -0.704,2.844 -0.704,2.844C-0.704,6.265 -0.734,11.973 -0.734,11.973L-12.434,11.973L-12.434,10.927C-10.041,9.639 -9.104,0.823 -9.104,0.823L-9.18,-17.425C-9.18,-17.425 -9.432,-26.6 -11.706,-29.346" style="fill:white;fill-rule:nonzero;"/>
                </g>
                <g transform="matrix(1,0,0,1,314.21,443.484)">
                    <path d="M0,22.686L-0.391,-0.077C-0.727,-0.077 -5.191,0.033 -7.761,-0.334C-10.452,-0.719 -12.031,-1.087 -13.408,-1.087C-14.785,-1.087 -16.357,-0.266 -16.357,0.4L-16.266,21.577C-16.266,22.194 -11.674,21.684 -8.677,21.684C-5.68,21.684 0,23.403 0,22.686M-25.026,28.512L-25.026,11.475C-25.026,10.402 -25.695,-5.809 -28.573,-8.687C-23.664,-10.176 -17.082,-7.417 -7.522,-7.417C2.039,-7.417 7.954,-10.075 9.139,-9.431C8.733,-8.517 7.964,-6.815 7.964,-5.742L8.108,32.655C6.826,32.655 5.586,32.862 3.205,32.655C-4.201,32.012 -8.655,31.216 -11.386,30.853C-11.386,30.853 -13.291,30.601 -25.026,28.512" style="fill:white;fill-rule:nonzero;"/>
                </g>
                <g transform="matrix(1,0,0,1,359.17,465.544)">
                    <path d="M0,-20.315L-0.758,-20.305C-0.758,-20.305 -4.377,-23.493 -10.774,-23.493C-17.171,-23.493 -22.503,-22.055 -22.503,-22.055L-22.81,-14.51C-22.81,-14.51 -1.226,-14.929 -0.808,-14.189C-0.808,-13.759 -0.782,1.391 -0.782,1.391C-0.782,1.391 -1.144,8.502 0.996,10.452C1.098,10.546 1.015,10.958 1.015,11.012C-0.228,10.179 -33.902,11.035 -33.902,11.035L-33.902,10.344C-29.661,7.178 -29.986,1.068 -29.986,1.068C-29.986,1.068 -28.58,1.066 -28.217,1.066C-24.984,3.38 -22.603,3.244 -22.603,3.244L-10.786,3.21L-9.681,1.399C-9.681,1.399 -9.638,-6.036 -9.638,-6.767C-11.46,-6.767 -22.328,-10.452 -29.431,-5.685C-29.896,-5.685 -30.656,-5.687 -30.656,-5.687C-30.656,-5.687 -30.686,-7.303 -30.686,-7.817L-30.74,-30.947C-30.74,-30.947 -16.737,-31.35 -14.369,-31.35C-12.002,-31.35 2.798,-30.657 2.798,-30.657C2.798,-30.657 2.78,-29.85 2.78,-29.614C0.122,-25.945 0,-20.315 0,-20.315" style="fill:white;fill-rule:nonzero;"/>
                </g>
                <g transform="matrix(1,0,0,1,404.813,477.432)">
                    <path d="M0,-42.554L0,-1.165L9.972,-0.677L9.972,-19.829C13.253,-15.124 27.369,-0.495 36.591,3.885L36.166,-29.42C36.166,-29.42 37.083,-40.031 41.601,-45.708L41.601,-46.439C32.342,-45.662 27.73,-41.691 27.73,-41.691C27.73,-41.691 28.01,-16.227 28.01,-13.948C20.023,-16.827 10.938,-32.108 10.938,-34.782C10.938,-37.456 10.991,-39.338 9.966,-41.715C9.501,-42.793 4.854,-43.287 3.718,-43.287C1.136,-43.287 0,-42.554 0,-42.554" style="fill:white;fill-rule:nonzero;"/>
                </g>
            </g>
        </g>
    </g>
</svg>
